<svg xmlns="http://www.w3.org/2000/svg" xmlns:xlink="http://www.w3.org/1999/xlink" viewBox="0,0,256,256" width="100px" height="100px" fill-rule="nonzero"><g fill="none" fill-rule="nonzero" stroke="none" stroke-width="1" stroke-linecap="butt" stroke-linejoin="miter" stroke-miterlimit="10" stroke-dasharray="" stroke-dashoffset="0" font-family="none" font-weight="none" font-size="none" text-anchor="none" style="mix-blend-mode: normal"><g transform="scale(5.12,5.12)"><path d="M39,16.917l-10,-10.392l-10,-1.155l-7,4.041l-4,9.238l4,13.691l10,10.558l10,1.155l7,-4.042l4,-9.238z" fill="#ff914d"></path><path d="M12,9.412l7,-4.042l10,1.155l-7,4.041z" fill="#373643"></path><path d="M32,20.959l7,-4.042l-10,-10.392l-7,4.041z" fill="#373643"></path><path d="M32,44.053l7,-4.042l4,-9.237l-7,4.041z" fill="#373643"></path><path d="M32,20.959l7,-4.042l4,13.857l-7,4.041z" fill="#373643"></path><path d="M19.921,29.087l-5,-8.66l-2,1.154l7.079,12.079l10.921,-6.305l-2,-3.464z" fill="#373643"></path></g></g></svg>